<svg xmlns="http://www.w3.org/2000/svg" width="43" height="41" fill="none">
    <g filter="url(#a)">
        <path fill="#4E75FF"
            d="M14.16 36.91c.33.27.74.42 1.17.42h19.5a3.67 3.67 0 0 0 3.67-3.66V20.45a3.67 3.67 0 0 0-3.26-3.64L22 15.32v-11a3.67 3.67 0 1 0-7.33 0v22L9.1 24.11a3.67 3.67 0 0 0-4.84 2.25l-.2.62a1.83 1.83 0 0 0 .56 1.99l9.53 7.94Z" />
        <path stroke="#000"
            d="M15.33 36.83c-.31 0-.61-.1-.85-.3l-9.53-7.95a1.33 1.33 0 0 1-.41-1.44l.2-.63a3.17 3.17 0 0 1 4.19-1.94l5.55 2.23.69.27V4.33a3.17 3.17 0 1 1 6.33 0v11.45l.45.05 13.23 1.47A3.17 3.17 0 0 1 38 20.45v13.22a3.17 3.17 0 0 1-3.17 3.16h-19.5Z" />
    </g>
    <defs>
        <filter id="a" width="42.53" height="44.67" x="-.03" y=".67"
            color-interpolation-filters="sRGB" filterUnits="userSpaceOnUse">
            <feFlood flood-opacity="0" result="BackgroundImageFix" />
            <feColorMatrix in="SourceAlpha" result="hardAlpha"
                values="0 0 0 0 0 0 0 0 0 0 0 0 0 0 0 0 0 0 127 0" />
            <feOffset dy="4" />
            <feGaussianBlur stdDeviation="2" />
            <feComposite in2="hardAlpha" operator="out" />
            <feColorMatrix values="0 0 0 0 0 0 0 0 0 0 0 0 0 0 0 0 0 0 0.25 0" />
            <feBlend in2="BackgroundImageFix" result="effect1_dropShadow_8_1187" />
            <feBlend in="SourceGraphic" in2="effect1_dropShadow_8_1187" result="shape" />
        </filter>
    </defs>
</svg>